<?xml version="1.0" encoding="utf-8"?>
<!-- Generator: Adobe Illustrator 19.0.0, SVG Export Plug-In . SVG Version: 6.00 Build 0)  -->
<svg version="1.1" id="Layer_1" xmlns="http://www.w3.org/2000/svg" xmlns:xlink="http://www.w3.org/1999/xlink" x="0px" y="0px"
	 viewBox="0 0 750 1208" style="enable-background:new 0 0 750 1208;" xml:space="preserve">
<style type="text/css">
	.st0{fill:none;stroke:url(#XMLID_2_);stroke-width:2;stroke-linecap:round;stroke-miterlimit:10;}
</style>
<linearGradient id="XMLID_2_" gradientUnits="userSpaceOnUse" x1="128.8112" y1="570" x2="621.0586" y2="570">
	<stop  offset="0" style="stop-color:#069C62"/>
	<stop  offset="1" style="stop-color:#003DAE"/>
</linearGradient>
<path id="XMLID_194_" class="st0" d="M228.3-373V709.2l106.1,20.5v-54.3l-182,14.7v-43L307,589.4v-179L153.4,577.6v-46l181-220.1
	V210.8L168.1,465.7l-26.1-5.5l-12.1,23.5l6.8,12.7v211.3l211.3,38.2v-540l10.8,5.9l12.7-17.6l248.5,156.5v317h-9.9v61.6l-248.4,16.6
	v-70.4c2,0,234.8-6.8,234.8-6.8v-92.9v-88.5l-227-76.8v96.8l213.1,48.3v17.4l-213.1-44.2v125.2l113.4-3.4V1513"/>
</svg>
